<?xml version="1.0" encoding="UTF-8" standalone="no"?>
<!-- Created with Inkscape (http://www.inkscape.org/) -->

<svg
   xmlns:dc="http://purl.org/dc/elements/1.1/"
   xmlns:cc="http://creativecommons.org/ns#"
   xmlns:rdf="http://www.w3.org/1999/02/22-rdf-syntax-ns#"
   xmlns:svg="http://www.w3.org/2000/svg"
   xmlns="http://www.w3.org/2000/svg"
   xmlns:sodipodi="http://sodipodi.sourceforge.net/DTD/sodipodi-0.dtd"
   xmlns:inkscape="http://www.inkscape.org/namespaces/inkscape"
   width="490"
   height="313.68781"
   viewBox="0 0 489.99999 313.6878"
   id="svg2"
   version="1.1"
   inkscape:version="0.91 r13725"
   sodipodi:docname="Securities and Exchange Commission of the Philippines (SEC).svg">
  <defs
     id="defs4" />
  <sodipodi:namedview
     id="base"
     pagecolor="#ffffff"
     bordercolor="#666666"
     borderopacity="1.0"
     inkscape:pageopacity="0.0"
     inkscape:pageshadow="2"
     inkscape:zoom="1.0208854"
     inkscape:cx="405.91425"
     inkscape:cy="101.22265"
     inkscape:document-units="px"
     inkscape:current-layer="layer1"
     showgrid="false"
     fit-margin-top="0"
     fit-margin-left="0"
     fit-margin-right="0"
     fit-margin-bottom="0"
     units="px"
     inkscape:window-width="1366"
     inkscape:window-height="705"
     inkscape:window-x="-4"
     inkscape:window-y="-4"
     inkscape:window-maximized="1" />
  <metadata
     id="metadata7">
    <rdf:RDF>
      <cc:Work
         rdf:about="">
        <dc:format>image/svg+xml</dc:format>
        <dc:type
           rdf:resource="http://purl.org/dc/dcmitype/StillImage" />
        <dc:title></dc:title>
      </cc:Work>
    </rdf:RDF>
  </metadata>
  <g
     inkscape:label="Layer 1"
     inkscape:groupmode="layer"
     id="layer1"
     transform="translate(-71.016785,-665.25448)">
    <g
       id="g4481">
      <path
         sodipodi:nodetypes="ccccc"
         inkscape:connector-curvature="0"
         id="path4149"
         d="m 168.95663,665.61238 97.93985,97.93985 0,119.45118 -97.47619,-96.85885 z"
         style="fill:#0ce093;fill-opacity:1;fill-rule:evenodd;stroke:none;stroke-width:1px;stroke-linecap:butt;stroke-linejoin:miter;stroke-opacity:1" />
      <path
         sodipodi:nodetypes="ccccc"
         inkscape:connector-curvature="0"
         id="path4151"
         d="m 71.721678,882.84575 97.707092,96.09654 97.53098,-95.54392 -97.50478,-97.36497 -97.554341,96.87562"
         style="fill:#01462f;fill-opacity:1;fill-rule:evenodd;stroke:none;stroke-width:1px;stroke-linecap:butt;stroke-linejoin:miter;stroke-opacity:1" />
      <path
         sodipodi:nodetypes="ccccc"
         inkscape:connector-curvature="0"
         id="path4147"
         d="m 169.04611,665.25448 -98.029325,99.56312 0.885761,117.996 97.712974,-96.65276 z"
         style="fill:#0f8469;fill-opacity:1;fill-rule:evenodd;stroke:none;stroke-width:1px;stroke-linecap:butt;stroke-linejoin:miter;stroke-opacity:1" />
      <path
         sodipodi:nodetypes="ccccc"
         inkscape:connector-curvature="0"
         id="path4153"
         d="m 123.73756,710.17628 -6.15976,5.75318 0.0332,212.80816 7.21429,6.94267 z"
         style="fill:#ffffff;fill-opacity:1;fill-rule:evenodd;stroke:none;stroke-width:1px;stroke-linecap:butt;stroke-linejoin:miter;stroke-opacity:1" />
      <path
         inkscape:connector-curvature="0"
         id="path4155"
         d="m 215.0162,711.29233 4.68188,4.93496 0.82112,213.23512 -6.5317,6.5317 z"
         style="fill:#ffffff;fill-opacity:1;fill-rule:evenodd;stroke:none;stroke-width:1px;stroke-linecap:butt;stroke-linejoin:miter;stroke-opacity:1" />
      <g
         id="text4157"
         style="font-style:normal;font-variant:normal;font-weight:bold;font-stretch:normal;font-size:72.01258087px;line-height:125%;font-family:'Swis721 BT';-inkscape-font-specification:'Swis721 BT, Bold';text-align:start;letter-spacing:0px;word-spacing:0px;writing-mode:lr-tb;text-anchor:start;fill:#01472f;fill-opacity:1;stroke:#01472f;stroke-width:1;stroke-linecap:butt;stroke-linejoin:miter;stroke-miterlimit:4;stroke-dasharray:none;stroke-opacity:1"
         transform="matrix(0.53157648,0,0,0.50227913,34.320977,473.10302)">
        <path
           id="path4322"
           style="font-style:normal;font-variant:normal;font-weight:bold;font-stretch:normal;font-size:82.30008698px;font-family:'Century Gothic';-inkscape-font-specification:'Century Gothic Bold';letter-spacing:2.05750227px;fill:#01472f;fill-opacity:1;stroke:#01472f;stroke-width:1;stroke-miterlimit:4;stroke-dasharray:none;stroke-opacity:1"
           d="m 572.32233,597.20896 -35.24276,0 q 0.76352,4.66153 4.05874,7.43434 3.33541,2.73262 8.47916,2.73262 6.1484,0 10.56881,-4.29986 l 9.24269,4.34004 q -3.45596,4.90265 -8.27823,7.2736 -4.82227,2.33076 -11.4529,2.33076 -10.28751,0 -16.75739,-6.46988 -6.46988,-6.51007 -6.46988,-16.27516 0,-10.00622 6.4297,-16.59665 6.46988,-6.63062 16.19479,-6.63062 10.3277,0 16.79758,6.63062 6.46988,6.59043 6.46988,17.44054 l -0.0402,2.08965 z m -11.01085,-8.6399 q -1.08501,-3.65689 -4.29986,-5.94746 -3.17466,-2.29058 -7.39415,-2.29058 -4.58116,0 -8.03712,2.57187 -2.17002,1.60743 -4.01855,5.66617 l 23.74968,0 z"
           inkscape:connector-curvature="0" />
        <path
           id="path4324"
           style="font-style:normal;font-variant:normal;font-weight:bold;font-stretch:normal;font-size:82.30008698px;font-family:'Century Gothic';-inkscape-font-specification:'Century Gothic Bold';letter-spacing:2.05750227px;fill:#01472f;fill-opacity:1;stroke:#01472f;stroke-width:1;stroke-miterlimit:4;stroke-dasharray:none;stroke-opacity:1"
           d="m 626.09868,581.01417 -9.12212,5.0232 q -2.57188,-2.69243 -5.10357,-3.73726 -2.49151,-1.04482 -5.8671,-1.04482 -6.1484,0 -9.96603,3.69707 -3.77744,3.65689 -3.77744,9.40343 0,5.58579 3.65689,9.12213 3.65689,3.53633 9.60435,3.53633 7.35397,0 11.4529,-5.0232 l 8.6399,5.90728 q -7.03248,9.12213 -19.85168,9.12213 -11.53327,0 -18.08352,-6.83155 -6.51006,-6.83155 -6.51006,-15.99386 0,-6.34933 3.17466,-11.69401 3.17466,-5.34468 8.84083,-8.39879 5.70635,-3.0541 12.73883,-3.0541 6.51006,0 11.69401,2.61206 5.18394,2.57188 8.47915,7.35396 z"
           inkscape:connector-curvature="0" />
        <path
           id="path4326"
           style="font-style:normal;font-variant:normal;font-weight:bold;font-stretch:normal;font-size:82.30008698px;font-family:'Century Gothic';-inkscape-font-specification:'Century Gothic Bold';letter-spacing:2.05750227px;fill:#01472f;fill-opacity:1;stroke:#01472f;stroke-width:1;stroke-miterlimit:4;stroke-dasharray:none;stroke-opacity:1"
           d="m 638.04184,572.17334 11.09122,0 0,21.05725 q 0,6.1484 0.8439,8.55953 0.8439,2.37095 2.69244,3.69708 1.88872,1.32612 4.62134,1.32612 2.73262,0 4.62134,-1.28594 1.92891,-1.32612 2.85318,-3.85781 0.68315,-1.88873 0.68315,-8.07731 l 0,-21.41892 11.01085,0 0,18.52556 q 0,11.45289 -1.80835,15.67238 -2.2102,5.14375 -6.51006,7.91656 -4.29986,2.73262 -10.93048,2.73262 -7.19322,0 -11.65382,-3.21485 -4.42042,-3.21484 -6.22877,-8.96138 -1.28594,-3.97838 -1.28594,-14.46682 l 0,-18.20407 z"
           inkscape:connector-curvature="0" />
        <path
           id="path4328"
           style="font-style:normal;font-variant:normal;font-weight:bold;font-stretch:normal;font-size:82.30008698px;font-family:'Century Gothic';-inkscape-font-specification:'Century Gothic Bold';letter-spacing:2.05750227px;fill:#01472f;fill-opacity:1;stroke:#01472f;stroke-width:1;stroke-miterlimit:4;stroke-dasharray:none;stroke-opacity:1"
           d="m 686.91555,572.17334 9.40343,0 0,5.50543 q 1.52705,-3.25503 4.05874,-4.94283 2.5317,-1.68779 5.54562,-1.68779 2.12983,0 4.4606,1.12519 l -3.41578,9.44362 q -1.92891,-0.96446 -3.17466,-0.96446 -2.53169,0 -4.29986,3.13448 -1.72798,3.13447 -1.72798,12.29679 l 0.0402,2.12983 0,17.68166 -10.8903,0 0,-43.72192 z"
           inkscape:connector-curvature="0" />
        <path
           id="path4330"
           style="font-style:normal;font-variant:normal;font-weight:bold;font-stretch:normal;font-size:82.30008698px;font-family:'Century Gothic';-inkscape-font-specification:'Century Gothic Bold';letter-spacing:2.05750227px;fill:#01472f;fill-opacity:1;stroke:#01472f;stroke-width:1;stroke-miterlimit:4;stroke-dasharray:none;stroke-opacity:1"
           d="m 722.20654,554.1702 q 2.89336,0 4.94283,2.08965 2.08965,2.08965 2.08965,5.06338 0,2.93355 -2.04947,5.0232 -2.04946,2.04947 -4.90264,2.04947 -2.93355,0 -5.0232,-2.08965 -2.04946,-2.12984 -2.04946,-5.14376 0,-2.89336 2.04946,-4.94283 2.04947,-2.04946 4.94283,-2.04946 z m -5.50543,18.00314 11.01085,0 0,43.72192 -11.01085,0 0,-43.72192 z"
           inkscape:connector-curvature="0" />
        <path
           id="path4332"
           style="font-style:normal;font-variant:normal;font-weight:bold;font-stretch:normal;font-size:82.30008698px;font-family:'Century Gothic';-inkscape-font-specification:'Century Gothic Bold';letter-spacing:2.05750227px;fill:#01472f;fill-opacity:1;stroke:#01472f;stroke-width:1;stroke-miterlimit:4;stroke-dasharray:none;stroke-opacity:1"
           d="m 741.06162,556.05892 10.93048,0 0,16.11442 6.51006,0 0,9.44362 -6.51006,0 0,34.2783 -10.93048,0 0,-34.2783 -5.62599,0 0,-9.44362 5.62599,0 0,-16.11442 z"
           inkscape:connector-curvature="0" />
        <path
           id="path4334"
           style="font-style:normal;font-variant:normal;font-weight:bold;font-stretch:normal;font-size:82.30008698px;font-family:'Century Gothic';-inkscape-font-specification:'Century Gothic Bold';letter-spacing:2.05750227px;fill:#01472f;fill-opacity:1;stroke:#01472f;stroke-width:1;stroke-miterlimit:4;stroke-dasharray:none;stroke-opacity:1"
           d="m 770.84718,554.1702 q 2.89336,0 4.94283,2.08965 2.08965,2.08965 2.08965,5.06338 0,2.93355 -2.04947,5.0232 -2.04946,2.04947 -4.90264,2.04947 -2.93355,0 -5.0232,-2.08965 -2.04946,-2.12984 -2.04946,-5.14376 0,-2.89336 2.04946,-4.94283 2.04947,-2.04946 4.94283,-2.04946 z m -5.50543,18.00314 11.01085,0 0,43.72192 -11.01085,0 0,-43.72192 z"
           inkscape:connector-curvature="0" />
        <path
           id="path4336"
           style="font-style:normal;font-variant:normal;font-weight:bold;font-stretch:normal;font-size:82.30008698px;font-family:'Century Gothic';-inkscape-font-specification:'Century Gothic Bold';letter-spacing:2.05750227px;fill:#01472f;fill-opacity:1;stroke:#01472f;stroke-width:1;stroke-miterlimit:4;stroke-dasharray:none;stroke-opacity:1"
           d="m 832.17844,597.20896 -35.24276,0 q 0.76352,4.66153 4.05874,7.43434 3.33541,2.73262 8.47916,2.73262 6.1484,0 10.56881,-4.29986 l 9.24269,4.34004 q -3.45596,4.90265 -8.27823,7.2736 -4.82227,2.33076 -11.4529,2.33076 -10.28751,0 -16.75739,-6.46988 -6.46988,-6.51007 -6.46988,-16.27516 0,-10.00622 6.4297,-16.59665 6.46988,-6.63062 16.19479,-6.63062 10.3277,0 16.79758,6.63062 6.46988,6.59043 6.46988,17.44054 l -0.0402,2.08965 z m -11.01085,-8.6399 q -1.08501,-3.65689 -4.29986,-5.94746 -3.17466,-2.29058 -7.39415,-2.29058 -4.58116,0 -8.03712,2.57187 -2.17002,1.60743 -4.01856,5.66617 l 23.74969,0 z"
           inkscape:connector-curvature="0" />
        <path
           id="path4338"
           style="font-style:normal;font-variant:normal;font-weight:bold;font-stretch:normal;font-size:82.30008698px;font-family:'Century Gothic';-inkscape-font-specification:'Century Gothic Bold';letter-spacing:2.05750227px;fill:#01472f;fill-opacity:1;stroke:#01472f;stroke-width:1;stroke-miterlimit:4;stroke-dasharray:none;stroke-opacity:1"
           d="m 869.92073,578.28155 -6.79137,6.79137 q -4.13912,-4.09893 -7.5147,-4.09893 -1.84854,0 -2.89337,0.80371 -1.04482,0.76352 -1.04482,1.92891 0,0.88408 0.64297,1.64761 0.68315,0.72334 3.29522,2.00928 l 4.01855,2.00927 q 6.34933,3.13448 8.72028,6.38951 2.37095,3.25504 2.37095,7.63527 0,5.82691 -4.29986,9.72491 -4.25967,3.898 -11.45289,3.898 -9.56417,0 -15.27053,-7.47452 l 6.75118,-7.35396 q 1.92891,2.25039 4.50079,3.65689 2.61206,1.36631 4.62134,1.36631 2.17002,0 3.49615,-1.04483 1.32612,-1.04482 1.32612,-2.41113 0,-2.5317 -4.78208,-4.94283 l -3.69708,-1.84854 q -10.60899,-5.34468 -10.60899,-13.3818 0,-5.18394 3.97837,-8.84083 4.01856,-3.69707 10.24732,-3.69707 4.25968,0 7.99694,1.88872 3.77744,1.84854 6.38951,5.34468 z"
           inkscape:connector-curvature="0" />
      </g>
      <g
         id="text4157-5"
         style="font-style:normal;font-variant:normal;font-weight:bold;font-stretch:normal;font-size:71.16088104px;line-height:125%;font-family:'Swis721 BT';-inkscape-font-specification:'Swis721 BT, Bold';text-align:start;letter-spacing:0px;word-spacing:0px;writing-mode:lr-tb;text-anchor:start;fill:#01472f;fill-opacity:1;stroke:#01472f;stroke-width:1;stroke-linecap:butt;stroke-linejoin:miter;stroke-miterlimit:4;stroke-dasharray:none;stroke-opacity:1"
         transform="matrix(0.52516616,0,0,0.5084101,34.320977,473.10302)">
        <path
           id="path4307"
           style="font-style:normal;font-variant:normal;font-weight:bold;font-stretch:normal;font-size:81.32671356px;font-family:'Century Gothic';-inkscape-font-specification:'Century Gothic Bold';letter-spacing:2.03316808px;fill:#01472f;fill-opacity:1;stroke:#01472f;stroke-width:1;stroke-miterlimit:4;stroke-dasharray:none;stroke-opacity:1"
           d="m 533.93833,648.00008 12.58816,0 8.4583,11.79396 8.57743,-11.79396 12.46903,0 -14.77223,20.45081 16.59891,22.75401 -12.58817,0 -10.28497,-14.17659 -10.16584,14.17659 -12.42933,0 16.36065,-22.75401 -14.81194,-20.45081 z"
           inkscape:connector-curvature="0" />
        <path
           id="path4309"
           style="font-style:normal;font-variant:normal;font-weight:bold;font-stretch:normal;font-size:81.32671356px;font-family:'Century Gothic';-inkscape-font-specification:'Century Gothic Bold';letter-spacing:2.03316808px;fill:#01472f;fill-opacity:1;stroke:#01472f;stroke-width:1;stroke-miterlimit:4;stroke-dasharray:none;stroke-opacity:1"
           d="m 627.74202,656.73635 -9.01424,4.96379 q -2.54146,-2.6606 -5.04321,-3.69306 -2.46204,-1.03247 -5.7977,-1.03247 -6.07568,0 -9.84816,3.65335 -3.73277,3.61363 -3.73277,9.29221 0,5.51973 3.61364,9.01424 3.61364,3.49451 9.49076,3.49451 7.26699,0 11.31744,-4.96379 l 8.53772,5.83741 q -6.94931,9.01424 -19.61689,9.01424 -11.39686,0 -17.86964,-6.75075 -6.43307,-6.75075 -6.43307,-15.8047 0,-6.27423 3.13711,-11.5557 3.13712,-5.28147 8.73627,-8.29946 5.63886,-3.01798 12.58817,-3.01798 6.43307,0 11.5557,2.58117 5.12263,2.54146 8.37887,7.26699 z"
           inkscape:connector-curvature="0" />
        <path
           id="path4311"
           style="font-style:normal;font-variant:normal;font-weight:bold;font-stretch:normal;font-size:81.32671356px;font-family:'Century Gothic';-inkscape-font-specification:'Century Gothic Bold';letter-spacing:2.03316808px;fill:#01472f;fill-opacity:1;stroke:#01472f;stroke-width:1;stroke-miterlimit:4;stroke-dasharray:none;stroke-opacity:1"
           d="m 639.62335,631.32175 10.76149,0 0,21.04646 q 3.17683,-2.74001 6.39336,-4.09016 3.21654,-1.38986 6.51249,-1.38986 6.43307,0 10.84092,4.44755 3.77248,3.8519 3.77248,11.31744 l 0,28.55172 -10.68208,0 0,-18.94182 q 0,-7.50525 -0.71478,-10.16584 -0.71479,-2.66059 -2.46204,-3.97103 -1.70755,-1.31044 -4.24901,-1.31044 -3.29595,0 -5.67857,2.18406 -2.34291,2.18407 -3.25624,5.95655 -0.47653,1.94581 -0.47653,8.89511 l 0,17.35341 -10.76149,0 0,-59.88315 z"
           inkscape:connector-curvature="0" />
        <path
           id="path4313"
           style="font-style:normal;font-variant:normal;font-weight:bold;font-stretch:normal;font-size:81.32671356px;font-family:'Century Gothic';-inkscape-font-specification:'Century Gothic Bold';letter-spacing:2.03316808px;fill:#01472f;fill-opacity:1;stroke:#01472f;stroke-width:1;stroke-miterlimit:4;stroke-dasharray:none;stroke-opacity:1"
           d="m 722.30816,648.00008 10.8012,0 0,43.20482 -10.8012,0 0,-4.56669 q -3.17683,3.01798 -6.39336,4.36813 -3.17683,1.31044 -6.9096,1.31044 -8.37887,0 -14.49426,-6.47278 -6.11539,-6.51249 -6.11539,-16.16209 0,-10.007 5.91684,-16.40036 5.91684,-6.39336 14.37513,-6.39336 3.89161,0 7.3067,1.46928 3.41509,1.46928 6.31394,4.40785 l 0,-4.76524 z m -11.39686,8.89511 q -5.04321,0 -8.37888,3.57393 -3.33566,3.53421 -3.33566,9.09366 0,5.59915 3.37537,9.21279 3.41509,3.61364 8.37888,3.61364 5.12263,0 8.49801,-3.53422 3.37537,-3.57393 3.37537,-9.33192 0,-5.63887 -3.37537,-9.13338 -3.37538,-3.4945 -8.53772,-3.4945 z"
           inkscape:connector-curvature="0" />
        <path
           id="path4315"
           style="font-style:normal;font-variant:normal;font-weight:bold;font-stretch:normal;font-size:81.32671356px;font-family:'Century Gothic';-inkscape-font-specification:'Century Gothic Bold';letter-spacing:2.03316808px;fill:#01472f;fill-opacity:1;stroke:#01472f;stroke-width:1;stroke-miterlimit:4;stroke-dasharray:none;stroke-opacity:1"
           d="m 746.10257,648.00008 10.8012,0 0,4.40784 q 3.69306,-3.0974 6.67133,-4.28871 3.01799,-1.23102 6.1551,-1.23102 6.43307,0 10.92034,4.48726 3.77247,3.81219 3.77247,11.27773 l 0,28.55172 -10.72178,0 0,-18.94182 q 0,-7.74351 -0.71478,-10.28497 -0.67508,-2.54146 -2.42233,-3.8519 -1.70755,-1.35015 -4.24901,-1.35015 -3.29595,0 -5.67857,2.22377 -2.34291,2.18407 -3.25625,6.07568 -0.47652,2.02523 -0.47652,8.77598 l 0,17.35341 -10.8012,0 0,-43.20482 z"
           inkscape:connector-curvature="0" />
        <path
           id="path4317"
           style="font-style:normal;font-variant:normal;font-weight:bold;font-stretch:normal;font-size:81.32671356px;font-family:'Century Gothic';-inkscape-font-specification:'Century Gothic Bold';letter-spacing:2.03316808px;fill:#01472f;fill-opacity:1;stroke:#01472f;stroke-width:1;stroke-miterlimit:4;stroke-dasharray:none;stroke-opacity:1"
           d="m 828.82709,648.00008 10.80121,0 0,37.01001 q 0,10.96004 -4.40785,16.12238 -5.91683,6.98902 -17.82992,6.98902 -6.35365,0 -10.68208,-1.58842 -4.32842,-1.58841 -7.30669,-4.68581 -2.97828,-3.0577 -4.40785,-7.46554 l 11.9528,0 q 1.58842,1.82667 4.09017,2.74001 2.50175,0.95305 5.91683,0.95305 4.36814,0 7.02873,-1.35015 2.66059,-1.35015 3.73277,-3.49451 1.11188,-2.14436 1.11188,-7.38612 -2.85914,2.85915 -5.99625,4.12988 -3.13712,1.23102 -7.10815,1.23102 -8.69656,0 -14.69281,-6.27423 -5.99626,-6.27423 -5.99626,-15.88413 0,-10.28497 6.35365,-16.51949 5.758,-5.63886 13.73977,-5.63886 3.73277,0 7.02872,1.38986 3.33567,1.35015 6.67133,4.48727 l 0,-4.76524 z m -11.23801,9.01424 q -5.12263,0 -8.4583,3.4548 -3.33567,3.41508 -3.33567,8.61713 0,5.4006 3.41509,8.8554 3.41509,3.4548 8.57743,3.4548 5.04321,0 8.29945,-3.37538 3.29596,-3.37537 3.29596,-8.8554 0,-5.4006 -3.29596,-8.77598 -3.29595,-3.37537 -8.498,-3.37537 z"
           inkscape:connector-curvature="0" />
        <path
           id="path4319"
           style="font-style:normal;font-variant:normal;font-weight:bold;font-stretch:normal;font-size:81.32671356px;font-family:'Century Gothic';-inkscape-font-specification:'Century Gothic Bold';letter-spacing:2.03316808px;fill:#01472f;fill-opacity:1;stroke:#01472f;stroke-width:1;stroke-miterlimit:4;stroke-dasharray:none;stroke-opacity:1"
           d="m 895.90574,672.7396 -34.82594,0 q 0.75449,4.6064 4.01074,7.34641 3.29595,2.7003 8.37887,2.7003 6.07568,0 10.44382,-4.249 l 9.13337,4.28871 q -3.41509,4.84466 -8.18033,7.18757 -4.76523,2.30319 -11.31743,2.30319 -10.16584,0 -16.5592,-6.39336 -6.39336,-6.43307 -6.39336,-16.08267 0,-9.88787 6.35365,-16.40036 6.39336,-6.5522 16.00325,-6.5522 10.20555,0 16.59891,6.5522 6.39336,6.51249 6.39336,17.23428 l -0.0397,2.06493 z m -10.88063,-8.53772 q -1.07217,-3.61363 -4.249,-5.87712 -3.13711,-2.26349 -7.3067,-2.26349 -4.52697,0 -7.94206,2.54146 -2.14435,1.58841 -3.97103,5.59915 l 23.46879,0 z"
           inkscape:connector-curvature="0" />
      </g>
      <g
         id="text4157-59"
         style="font-style:normal;font-variant:normal;font-weight:bold;font-stretch:normal;font-size:71.96459961px;line-height:125%;font-family:'Swis721 BT';-inkscape-font-specification:'Swis721 BT, Bold';text-align:start;letter-spacing:0px;word-spacing:0px;writing-mode:lr-tb;text-anchor:start;fill:#01472f;fill-opacity:1;stroke:#01472f;stroke-width:1;stroke-linecap:butt;stroke-linejoin:miter;stroke-miterlimit:4;stroke-dasharray:none;stroke-opacity:1"
         transform="matrix(0.52525865,0,0,0.50832059,34.320977,473.10302)">
        <path
           id="path4288"
           style="font-style:normal;font-variant:normal;font-weight:bold;font-stretch:normal;font-size:82.24524689px;font-family:'Century Gothic';-inkscape-font-specification:'Century Gothic Bold';letter-spacing:2.05613136px;fill:#01472f;fill-opacity:1;stroke:#01472f;stroke-width:1;stroke-miterlimit:4;stroke-dasharray:none;stroke-opacity:1"
           d="m 555.64431,729.57449 q 6.18445,0 11.60589,3.09223 5.4616,3.09223 8.51367,8.39319 3.05207,5.30096 3.05207,11.44526 0,6.18446 -3.09223,11.56574 -3.05207,5.38128 -8.35303,8.43335 -5.30096,3.01191 -11.68621,3.01191 -9.39717,0 -16.06353,-6.66636 -6.6262,-6.70652 -6.6262,-16.26432 0,-10.2405 7.50969,-17.0675 6.58605,-5.9435 15.13988,-5.9435 z m 0.16063,10.32081 q -5.10017,0 -8.51367,3.57414 -3.37334,3.53397 -3.37334,9.07589 0,5.70255 3.33319,9.23653 3.37334,3.53397 8.51366,3.53397 5.14033,0 8.55383,-3.57413 3.4135,-3.57414 3.4135,-9.19637 0,-5.62223 -3.37334,-9.11605 -3.33318,-3.53398 -8.55383,-3.53398 z"
           inkscape:connector-curvature="0" />
        <path
           id="path4290"
           style="font-style:normal;font-variant:normal;font-weight:bold;font-stretch:normal;font-size:82.24524689px;font-family:'Century Gothic';-inkscape-font-specification:'Century Gothic Bold';letter-spacing:2.05613136px;fill:#01472f;fill-opacity:1;stroke:#01472f;stroke-width:1;stroke-miterlimit:4;stroke-dasharray:none;stroke-opacity:1"
           d="m 589.78733,730.69894 11.00351,0 0,5.01985 q 2.81112,-3.09223 6.22462,-4.61827 3.45366,-1.52603 7.5097,-1.52603 4.09619,0 7.38922,2.00794 3.29302,2.00794 5.30096,5.86319 2.61032,-3.85525 6.38525,-5.86319 3.81509,-2.00794 8.31288,-2.00794 4.65842,0 8.19239,2.16858 3.53398,2.16857 5.06001,5.66239 1.5662,3.49381 1.5662,11.36494 l 0,25.62132 -11.04368,0 0,-22.16766 q 0,-7.42938 -1.8473,-10.0397 -1.84731,-2.65049 -5.54192,-2.65049 -2.81111,0 -5.06001,1.60636 -2.20873,1.60635 -3.29302,4.45763 -1.08429,2.81111 -1.08429,9.07589 l 0,19.71797 -11.04367,0 0,-21.16369 q 0,-5.86319 -0.8835,-8.47351 -0.84333,-2.65048 -2.57016,-3.93556 -1.72683,-1.28509 -4.17652,-1.28509 -2.73079,0 -4.97969,1.64652 -2.20873,1.60635 -3.33318,4.53794 -1.08429,2.9316 -1.08429,9.23653 l 0,19.43686 -11.00351,0 0,-43.69278 z"
           inkscape:connector-curvature="0" />
        <path
           id="path4292"
           style="font-style:normal;font-variant:normal;font-weight:bold;font-stretch:normal;font-size:82.24524689px;font-family:'Century Gothic';-inkscape-font-specification:'Century Gothic Bold';letter-spacing:2.05613136px;fill:#01472f;fill-opacity:1;stroke:#01472f;stroke-width:1;stroke-miterlimit:4;stroke-dasharray:none;stroke-opacity:1"
           d="m 669.10901,730.69894 11.00352,0 0,5.01985 q 2.81111,-3.09223 6.22461,-4.61827 3.45366,-1.52603 7.5097,-1.52603 4.0962,0 7.38922,2.00794 3.29303,2.00794 5.30097,5.86319 2.61032,-3.85525 6.38525,-5.86319 3.81508,-2.00794 8.31287,-2.00794 4.65842,0 8.1924,2.16858 3.53397,2.16857 5.06001,5.66239 1.56619,3.49381 1.56619,11.36494 l 0,25.62132 -11.04367,0 0,-22.16766 q 0,-7.42938 -1.84731,-10.0397 -1.8473,-2.65049 -5.54191,-2.65049 -2.81112,0 -5.06001,1.60636 -2.20874,1.60635 -3.29302,4.45763 -1.08429,2.81111 -1.08429,9.07589 l 0,19.71797 -11.04368,0 0,-21.16369 q 0,-5.86319 -0.88349,-8.47351 -0.84333,-2.65048 -2.57016,-3.93556 -1.72683,-1.28509 -4.17652,-1.28509 -2.7308,0 -4.97969,1.64652 -2.20874,1.60635 -3.33318,4.53794 -1.08429,2.9316 -1.08429,9.23653 l 0,19.43686 -11.00352,0 0,-43.69278 z"
           inkscape:connector-curvature="0" />
        <path
           id="path4294"
           style="font-style:normal;font-variant:normal;font-weight:bold;font-stretch:normal;font-size:82.24524689px;font-family:'Century Gothic';-inkscape-font-specification:'Century Gothic Bold';letter-spacing:2.05613136px;fill:#01472f;fill-opacity:1;stroke:#01472f;stroke-width:1;stroke-miterlimit:4;stroke-dasharray:none;stroke-opacity:1"
           d="m 752.80801,712.70779 q 2.89143,0 4.93953,2.08826 2.08826,2.08825 2.08826,5.06001 0,2.93159 -2.0481,5.01985 -2.0481,2.0481 -4.89937,2.0481 -2.9316,0 -5.01985,-2.08826 -2.0481,-2.12842 -2.0481,-5.14033 0,-2.89143 2.0481,-4.93953 2.0481,-2.0481 4.93953,-2.0481 z m -5.50176,17.99115 11.00352,0 0,43.69278 -11.00352,0 0,-43.69278 z"
           inkscape:connector-curvature="0" />
        <path
           id="path4296"
           style="font-style:normal;font-variant:normal;font-weight:bold;font-stretch:normal;font-size:82.24524689px;font-family:'Century Gothic';-inkscape-font-specification:'Century Gothic Bold';letter-spacing:2.05613136px;fill:#01472f;fill-opacity:1;stroke:#01472f;stroke-width:1;stroke-miterlimit:4;stroke-dasharray:none;stroke-opacity:1"
           d="m 797.07106,736.80308 -6.78684,6.78683 q -4.13636,-4.09619 -7.5097,-4.09619 -1.84731,0 -2.89144,0.80317 -1.04412,0.76302 -1.04412,1.92763 0,0.88349 0.64254,1.64651 0.6827,0.72286 3.29302,2.00794 l 4.01588,2.00794 q 6.34509,3.13239 8.71446,6.38525 2.36937,3.25286 2.36937,7.63017 0,5.82303 -4.29699,9.71844 -4.25683,3.8954 -11.44526,3.8954 -9.5578,0 -15.26035,-7.46954 l 6.74668,-7.34906 q 1.92762,2.24889 4.49779,3.65445 2.61032,1.3654 4.61826,1.3654 2.16858,0 3.49382,-1.04413 1.32524,-1.04413 1.32524,-2.40953 0,-2.53 -4.7789,-4.93953 l -3.69461,-1.84731 q -10.60193,-5.34112 -10.60193,-13.37288 0,-5.18049 3.97572,-8.83494 4.01589,-3.69461 10.2405,-3.69461 4.25684,0 7.9916,1.88746 3.77493,1.84731 6.38526,5.34113 z"
           inkscape:connector-curvature="0" />
        <path
           id="path4298"
           style="font-style:normal;font-variant:normal;font-weight:bold;font-stretch:normal;font-size:82.24524689px;font-family:'Century Gothic';-inkscape-font-specification:'Century Gothic Bold';letter-spacing:2.05613136px;fill:#01472f;fill-opacity:1;stroke:#01472f;stroke-width:1;stroke-miterlimit:4;stroke-dasharray:none;stroke-opacity:1"
           d="m 835.27011,736.80308 -6.78684,6.78683 q -4.13636,-4.09619 -7.5097,-4.09619 -1.84731,0 -2.89143,0.80317 -1.04413,0.76302 -1.04413,1.92763 0,0.88349 0.64254,1.64651 0.6827,0.72286 3.29302,2.00794 l 4.01588,2.00794 q 6.34509,3.13239 8.71446,6.38525 2.36937,3.25286 2.36937,7.63017 0,5.82303 -4.29699,9.71844 -4.25683,3.8954 -11.44526,3.8954 -9.5578,0 -15.26035,-7.46954 l 6.74668,-7.34906 q 1.92762,2.24889 4.49779,3.65445 2.61032,1.3654 4.61826,1.3654 2.16858,0 3.49382,-1.04413 1.32524,-1.04413 1.32524,-2.40953 0,-2.53 -4.7789,-4.93953 l -3.69461,-1.84731 q -10.60193,-5.34112 -10.60193,-13.37288 0,-5.18049 3.97572,-8.83494 4.01589,-3.69461 10.2405,-3.69461 4.25684,0 7.99161,1.88746 3.77492,1.84731 6.38525,5.34113 z"
           inkscape:connector-curvature="0" />
        <path
           id="path4300"
           style="font-style:normal;font-variant:normal;font-weight:bold;font-stretch:normal;font-size:82.24524689px;font-family:'Century Gothic';-inkscape-font-specification:'Century Gothic Bold';letter-spacing:2.05613136px;fill:#01472f;fill-opacity:1;stroke:#01472f;stroke-width:1;stroke-miterlimit:4;stroke-dasharray:none;stroke-opacity:1"
           d="m 851.0204,712.70779 q 2.89143,0 4.93953,2.08826 2.08826,2.08825 2.08826,5.06001 0,2.93159 -2.0481,5.01985 -2.0481,2.0481 -4.89938,2.0481 -2.93159,0 -5.01985,-2.08826 -2.0481,-2.12842 -2.0481,-5.14033 0,-2.89143 2.0481,-4.93953 2.0481,-2.0481 4.93954,-2.0481 z m -5.50176,17.99115 11.00351,0 0,43.69278 -11.00351,0 0,-43.69278 z"
           inkscape:connector-curvature="0" />
        <path
           id="path4302"
           style="font-style:normal;font-variant:normal;font-weight:bold;font-stretch:normal;font-size:82.24524689px;font-family:'Century Gothic';-inkscape-font-specification:'Century Gothic Bold';letter-spacing:2.05613136px;fill:#01472f;fill-opacity:1;stroke:#01472f;stroke-width:1;stroke-miterlimit:4;stroke-dasharray:none;stroke-opacity:1"
           d="m 889.05883,729.57449 q 6.18445,0 11.60589,3.09223 5.4616,3.09223 8.51367,8.39319 3.05207,5.30096 3.05207,11.44526 0,6.18446 -3.09223,11.56574 -3.05207,5.38128 -8.35303,8.43335 -5.30096,3.01191 -11.68621,3.01191 -9.39717,0 -16.06353,-6.66636 -6.6262,-6.70652 -6.6262,-16.26432 0,-10.2405 7.50969,-17.0675 6.58605,-5.9435 15.13988,-5.9435 z m 0.16063,10.32081 q -5.10017,0 -8.51367,3.57414 -3.37334,3.53397 -3.37334,9.07589 0,5.70255 3.33319,9.23653 3.37334,3.53397 8.51366,3.53397 5.14033,0 8.55383,-3.57413 3.4135,-3.57414 3.4135,-9.19637 0,-5.62223 -3.37334,-9.11605 -3.33318,-3.53398 -8.55383,-3.53398 z"
           inkscape:connector-curvature="0" />
        <path
           id="path4304"
           style="font-style:normal;font-variant:normal;font-weight:bold;font-stretch:normal;font-size:82.24524689px;font-family:'Century Gothic';-inkscape-font-specification:'Century Gothic Bold';letter-spacing:2.05613136px;fill:#01472f;fill-opacity:1;stroke:#01472f;stroke-width:1;stroke-miterlimit:4;stroke-dasharray:none;stroke-opacity:1"
           d="m 923.28218,730.69894 10.9232,0 0,4.45762 q 3.73477,-3.13238 6.74668,-4.33715 3.05207,-1.24492 6.22461,-1.24492 6.50573,0 11.04368,4.53795 3.81508,3.85524 3.81508,11.4051 l 0,28.87418 -10.84287,0 0,-19.15575 q 0,-7.83097 -0.72286,-10.40113 -0.6827,-2.57017 -2.44969,-3.89541 -1.72683,-1.3654 -4.29699,-1.3654 -3.33319,0 -5.74271,2.2489 -2.36937,2.20873 -3.29303,6.1443 -0.4819,2.04809 -0.4819,8.87509 l 0,17.5494 -10.9232,0 0,-43.69278 z"
           inkscape:connector-curvature="0" />
      </g>
      <g
         id="text4196"
         style="font-style:normal;font-variant:normal;font-weight:bold;font-stretch:normal;font-size:85.17858887px;line-height:125%;font-family:'Swis721 BT';-inkscape-font-specification:'Swis721 BT, Bold';text-align:start;letter-spacing:0px;word-spacing:0px;writing-mode:lr-tb;text-anchor:start;fill:#01472f;fill-opacity:1;stroke:none;stroke-width:1px;stroke-linecap:butt;stroke-linejoin:miter;stroke-opacity:1"
         transform="matrix(0.49376049,0,0,0.54074754,34.320977,473.10302)">
        <path
           id="path4285"
           style="font-style:normal;font-variant:normal;font-weight:normal;font-stretch:normal;font-family:'Swis721 Hv BT';-inkscape-font-specification:'Swis721 Hv BT';fill:#01472f;fill-opacity:1"
           d="m 509.31584,552.94503 15.05598,0 q 0.16637,5.24048 3.07774,7.90231 2.91138,2.62024 8.52618,2.62024 4.78298,0 7.40322,-1.58046 2.62024,-1.58046 2.62024,-4.45025 0,-1.45569 -0.62387,-2.57865 -0.62387,-1.16455 -1.74683,-1.74683 -1.70523,-0.915 -8.35981,-2.86978 -6.65458,-1.95478 -11.2296,-3.78479 -6.61298,-2.62024 -10.06505,-6.90413 -3.41047,-4.32547 -3.41047,-10.06505 0,-8.77572 6.5714,-13.93302 6.61298,-5.19889 17.88417,-5.19889 11.06324,0 17.55145,5.44844 6.48822,5.44844 6.48822,14.72325 l -14.76485,0 q -0.49909,-4.28388 -3.03615,-6.32185 -2.49547,-2.03796 -7.23685,-2.03796 -3.78479,0 -6.15549,1.58046 -2.37069,1.53887 -2.37069,3.95116 0,4.07593 11.27119,7.69435 2.03797,0.66546 3.11933,0.99819 l 0.62387,0.20795 q 11.64551,3.78479 14.55689,6.1139 2.95297,2.41228 4.49184,5.69798 1.53887,3.2441 1.53887,7.23685 0,9.15005 -7.0289,14.26575 -6.9873,5.07412 -19.631,5.07412 -11.93665,0 -18.17531,-5.44844 -6.23867,-5.49002 -6.94572,-16.59485 z"
           inkscape:connector-curvature="0" />
      </g>
      <g
         transform="matrix(0.51672021,0,0,0.51672021,34.320977,473.10302)"
         id="text4196-6"
         style="font-style:normal;font-variant:normal;font-weight:bold;font-stretch:normal;font-size:81.39379883px;line-height:125%;font-family:'Swis721 BT';-inkscape-font-specification:'Swis721 BT, Bold';text-align:start;letter-spacing:0px;word-spacing:0px;writing-mode:lr-tb;text-anchor:start;fill:#01472f;fill-opacity:1;stroke:none;stroke-width:1px;stroke-linecap:butt;stroke-linejoin:miter;stroke-opacity:1">
        <path
           id="path4282"
           style="font-style:normal;font-variant:normal;font-weight:normal;font-stretch:normal;font-family:'Swis721 Hv BT';-inkscape-font-specification:'Swis721 Hv BT';fill:#01472f;fill-opacity:1"
           d="m 489.94316,680.57416 0,-58.54154 44.4725,0 0,12.00241 -29.48936,0 0,10.33319 26.9458,0 0,11.72421 -26.9458,0 0,12.51906 30.44319,0 0,11.96267 -45.42633,0 z"
           inkscape:connector-curvature="0" />
      </g>
      <g
         id="text4196-0"
         style="font-style:normal;font-variant:normal;font-weight:bold;font-stretch:normal;font-size:83.20402527px;line-height:125%;font-family:'Swis721 BT';-inkscape-font-specification:'Swis721 BT, Bold';text-align:start;letter-spacing:0px;word-spacing:0px;writing-mode:lr-tb;text-anchor:start;fill:#01472f;fill-opacity:1;stroke:none;stroke-width:1px;stroke-linecap:butt;stroke-linejoin:miter;stroke-opacity:1"
         transform="matrix(0.50547819,0,0,0.52821227,34.320977,473.10302)">
        <path
           id="path4279"
           style="font-style:normal;font-variant:normal;font-weight:normal;font-stretch:normal;font-family:'Swis721 Hv BT';-inkscape-font-specification:'Swis721 Hv BT';fill:#01472f;fill-opacity:1"
           d="m 548.74292,724.75243 q -1.54383,10.76614 -8.49104,16.69768 -6.90658,5.93154 -17.87586,5.93154 -13.12251,0 -21.16665,-8.57229 -8.04414,-8.57229 -8.04414,-22.54797 0,-14.54445 8.16602,-23.19799 8.20665,-8.65355 21.93856,-8.65355 10.88803,0 17.75398,5.7284 6.90659,5.72841 7.88164,15.64139 l -14.38195,0 q -1.0563,-4.30646 -4.02207,-6.45969 -2.92514,-2.19386 -7.71912,-2.19386 -6.41906,0 -10.15674,5.07837 -3.73769,5.07837 -3.73769,13.89442 0,8.77543 3.53455,13.65066 3.53455,4.83461 9.95361,4.83461 5.15962,0 8.24727,-2.51887 3.12828,-2.51887 3.90019,-7.31285 l 14.21944,0 z"
           inkscape:connector-curvature="0" />
      </g>
      <g
         id="text4157-5-0"
         style="font-style:normal;font-variant:normal;font-weight:bold;font-stretch:normal;font-size:52.5px;line-height:125%;font-family:'Swis721 BT';-inkscape-font-specification:'Swis721 BT, Bold';text-align:start;letter-spacing:0px;word-spacing:0px;writing-mode:lr-tb;text-anchor:start;fill:#01472f;fill-opacity:1;stroke:#01472f;stroke-width:1;stroke-linecap:butt;stroke-linejoin:miter;stroke-miterlimit:4;stroke-dasharray:none;stroke-opacity:1"
         transform="matrix(0.52516616,0,0,0.5084101,34.320977,473.10302)">
        <path
           id="path4272"
           style="font-style:normal;font-variant:normal;font-weight:bold;font-stretch:normal;font-size:52.5px;font-family:'Century Gothic';-inkscape-font-specification:'Century Gothic Bold';letter-spacing:2.03316808px;fill:#01472f;fill-opacity:1;stroke:#01472f;stroke-width:1;stroke-miterlimit:4;stroke-dasharray:none;stroke-opacity:1"
           d="m 925.23596,581.64594 6.97266,0 0,27.89062 -6.97266,0 0,-2.948 q -2.05078,1.94824 -4.1272,2.81983 -2.05078,0.84594 -4.46044,0.84594 -5.40894,0 -9.35669,-4.17846 -3.94776,-4.2041 -3.94776,-10.43335 0,-6.45996 3.81958,-10.58716 3.81958,-4.1272 9.27979,-4.1272 2.5122,0 4.71679,0.94849 2.20459,0.94848 4.07593,2.84546 l 0,-3.07617 z m -7.35718,5.74218 q -3.25561,0 -5.40893,2.30713 -2.15332,2.2815 -2.15332,5.87036 0,3.6145 2.17895,5.94727 2.20459,2.33276 5.40894,2.33276 3.30688,0 5.48584,-2.28149 2.17895,-2.30713 2.17895,-6.02417 0,-3.64014 -2.17895,-5.896 -2.17896,-2.25586 -5.51148,-2.25586 z"
           inkscape:connector-curvature="0" />
        <path
           id="path4274"
           style="font-style:normal;font-variant:normal;font-weight:bold;font-stretch:normal;font-size:52.5px;font-family:'Century Gothic';-inkscape-font-specification:'Century Gothic Bold';letter-spacing:2.03316808px;fill:#01472f;fill-opacity:1;stroke:#01472f;stroke-width:1;stroke-miterlimit:4;stroke-dasharray:none;stroke-opacity:1"
           d="m 941.31698,581.64594 6.97266,0 0,2.84545 q 2.38403,-1.99951 4.30664,-2.76855 1.94824,-0.79468 3.97339,-0.79468 4.15283,0 7.04956,2.89673 2.4353,2.46094 2.4353,7.28027 l 0,18.4314 -6.92139,0 0,-12.22778 q 0,-4.99878 -0.46142,-6.63941 -0.43579,-1.64062 -1.56372,-2.48657 -1.1023,-0.87158 -2.74292,-0.87158 -2.12769,0 -3.66577,1.43555 -1.51245,1.40991 -2.10205,3.92211 -0.30762,1.30738 -0.30762,5.66529 l 0,11.20239 -6.97266,0 0,-27.89062 z"
           inkscape:connector-curvature="0" />
        <path
           id="path4276"
           style="font-style:normal;font-variant:normal;font-weight:bold;font-stretch:normal;font-size:52.5px;font-family:'Century Gothic';-inkscape-font-specification:'Century Gothic Bold';letter-spacing:2.03316808px;fill:#01472f;fill-opacity:1;stroke:#01472f;stroke-width:1;stroke-miterlimit:4;stroke-dasharray:none;stroke-opacity:1"
           d="m 995.43999,570.87933 6.97271,0 0,38.65723 -6.97271,0 0,-2.948 q -2.05078,1.94824 -4.12719,2.81983 -2.05078,0.84594 -4.46045,0.84594 -5.40894,0 -9.35669,-4.17846 -3.94776,-4.2041 -3.94776,-10.43335 0,-6.45996 3.81959,-10.58716 3.81958,-4.1272 9.27978,-4.1272 2.51221,0 4.7168,0.94849 2.20459,0.94848 4.07592,2.84546 l 0,-13.84278 z m -7.35717,16.50879 q -3.25562,0 -5.40894,2.30713 -2.15332,2.2815 -2.15332,5.87036 0,3.6145 2.17896,5.94727 2.20459,2.33276 5.40893,2.33276 3.30689,0 5.48584,-2.28149 2.17896,-2.30713 2.17896,-6.02417 0,-3.64014 -2.17896,-5.896 -2.17895,-2.25586 -5.51147,-2.25586 z"
           inkscape:connector-curvature="0" />
      </g>
      <g
         id="text4452"
         style="font-style:normal;font-variant:normal;font-weight:normal;font-stretch:normal;font-size:20.44703674px;line-height:125%;font-family:'Swis721 BT';-inkscape-font-specification:'Swis721 BT';text-align:start;letter-spacing:37.78717041px;word-spacing:0px;writing-mode:lr-tb;text-anchor:start;fill:#01472f;fill-opacity:1;stroke:#01472f;stroke-width:0.5;stroke-linecap:butt;stroke-linejoin:miter;stroke-miterlimit:4;stroke-dasharray:none;stroke-opacity:1"
         transform="scale(1.0558999,0.94705946)">
        <path
           id="path4459"
           style="font-style:normal;font-variant:normal;font-weight:normal;font-stretch:normal;font-family:'Swis721 BT';-inkscape-font-specification:'Swis721 BT';letter-spacing:12.17771053px;fill:#01472f;fill-opacity:1;stroke:#01472f;stroke-width:0.5;stroke-miterlimit:4;stroke-dasharray:none;stroke-opacity:1"
           d="m 272.83821,936.81174 3.3546,0 q 1.74718,0 2.43607,-0.5591 0.69887,-0.5591 0.69887,-1.91691 0,-1.30789 -0.68889,-1.87697 -0.68889,-0.56909 -2.29629,-0.56909 l -3.50436,0 0,4.92207 z m -1.99678,7.97714 0,-14.70629 5.41128,0 q 1.31788,0 2.00677,0.12979 0.68888,0.12979 1.22802,0.42931 0.89855,0.48921 1.37777,1.44766 0.47923,0.95846 0.47923,2.24638 0,1.22802 -0.47923,2.16651 -0.47922,0.93849 -1.39774,1.49758 -0.52915,0.31949 -1.24799,0.45926 -0.70886,0.12979 -2.34622,0.12979 l -3.03511,0 0,6.20001 -1.99678,0 z" />
        <path
           id="path4461"
           style="font-style:normal;font-variant:normal;font-weight:normal;font-stretch:normal;font-family:'Swis721 BT';-inkscape-font-specification:'Swis721 BT';letter-spacing:12.17771053px;fill:#01472f;fill-opacity:1;stroke:#01472f;stroke-width:0.5;stroke-miterlimit:4;stroke-dasharray:none;stroke-opacity:1"
           d="m 295.91835,944.78888 0,-14.70629 1.99678,0 0,6.04026 7.6277,0 0,-6.04026 2.00677,0 0,14.70629 -2.00677,0 0,-6.88889 -7.6277,0 0,6.88889 -1.99678,0 z" />
        <path
           id="path4463"
           style="font-style:normal;font-variant:normal;font-weight:normal;font-stretch:normal;font-family:'Swis721 BT';-inkscape-font-specification:'Swis721 BT';letter-spacing:12.17771053px;fill:#01472f;fill-opacity:1;stroke:#01472f;stroke-width:0.5;stroke-miterlimit:4;stroke-dasharray:none;stroke-opacity:1"
           d="m 322.91218,944.78888 0,-14.70629 1.99678,0 0,14.70629 -1.99678,0 z" />
        <path
           id="path4465"
           style="font-style:normal;font-variant:normal;font-weight:normal;font-stretch:normal;font-family:'Swis721 BT';-inkscape-font-specification:'Swis721 BT';letter-spacing:12.17771053px;fill:#01472f;fill-opacity:1;stroke:#01472f;stroke-width:0.5;stroke-miterlimit:4;stroke-dasharray:none;stroke-opacity:1"
           d="m 340.32145,944.78888 0,-14.70629 2.01675,0 0,12.84928 7.32819,0 0,1.85701 -9.34494,0 z" />
        <path
           id="path4467"
           style="font-style:normal;font-variant:normal;font-weight:normal;font-stretch:normal;font-family:'Swis721 BT';-inkscape-font-specification:'Swis721 BT';letter-spacing:12.17771053px;fill:#01472f;fill-opacity:1;stroke:#01472f;stroke-width:0.5;stroke-miterlimit:4;stroke-dasharray:none;stroke-opacity:1"
           d="m 363.48146,944.78888 0,-14.70629 1.99678,0 0,14.70629 -1.99678,0 z" />
        <path
           id="path4469"
           style="font-style:normal;font-variant:normal;font-weight:normal;font-stretch:normal;font-family:'Swis721 BT';-inkscape-font-specification:'Swis721 BT';letter-spacing:12.17771053px;fill:#01472f;fill-opacity:1;stroke:#01472f;stroke-width:0.5;stroke-miterlimit:4;stroke-dasharray:none;stroke-opacity:1"
           d="m 382.88752,936.81174 3.35459,0 q 1.74718,0 2.43607,-0.5591 0.69887,-0.5591 0.69887,-1.91691 0,-1.30789 -0.68889,-1.87697 -0.68888,-0.56909 -2.29629,-0.56909 l -3.50435,0 0,4.92207 z m -1.99678,7.97714 0,-14.70629 5.41127,0 q 1.31788,0 2.00677,0.12979 0.68889,0.12979 1.22802,0.42931 0.89855,0.48921 1.37778,1.44766 0.47922,0.95846 0.47922,2.24638 0,1.22802 -0.47922,2.16651 -0.47923,0.93849 -1.39775,1.49758 -0.52915,0.31949 -1.24799,0.45926 -0.70886,0.12979 -2.34622,0.12979 l -3.0351,0 0,6.20001 -1.99678,0 z" />
        <path
           id="path4471"
           style="font-style:normal;font-variant:normal;font-weight:normal;font-stretch:normal;font-family:'Swis721 BT';-inkscape-font-specification:'Swis721 BT';letter-spacing:12.17771053px;fill:#01472f;fill-opacity:1;stroke:#01472f;stroke-width:0.5;stroke-miterlimit:4;stroke-dasharray:none;stroke-opacity:1"
           d="m 407.96444,936.81174 3.35459,0 q 1.74718,0 2.43607,-0.5591 0.69887,-0.5591 0.69887,-1.91691 0,-1.30789 -0.68889,-1.87697 -0.68889,-0.56909 -2.29629,-0.56909 l -3.50435,0 0,4.92207 z m -1.99679,7.97714 0,-14.70629 5.41128,0 q 1.31788,0 2.00677,0.12979 0.68889,0.12979 1.22802,0.42931 0.89855,0.48921 1.37777,1.44766 0.47923,0.95846 0.47923,2.24638 0,1.22802 -0.47923,2.16651 -0.47922,0.93849 -1.39774,1.49758 -0.52915,0.31949 -1.24799,0.45926 -0.70886,0.12979 -2.34622,0.12979 l -3.0351,0 0,6.20001 -1.99679,0 z" />
        <path
           id="path4473"
           style="font-style:normal;font-variant:normal;font-weight:normal;font-stretch:normal;font-family:'Swis721 BT';-inkscape-font-specification:'Swis721 BT';letter-spacing:12.17771053px;fill:#01472f;fill-opacity:1;stroke:#01472f;stroke-width:0.5;stroke-miterlimit:4;stroke-dasharray:none;stroke-opacity:1"
           d="m 431.08449,944.78888 0,-14.70629 1.99679,0 0,14.70629 -1.99679,0 z" />
        <path
           id="path4475"
           style="font-style:normal;font-variant:normal;font-weight:normal;font-stretch:normal;font-family:'Swis721 BT';-inkscape-font-specification:'Swis721 BT';letter-spacing:12.17771053px;fill:#01472f;fill-opacity:1;stroke:#01472f;stroke-width:0.5;stroke-miterlimit:4;stroke-dasharray:none;stroke-opacity:1"
           d="m 448.47381,944.78888 0,-14.70629 2.18648,0 6.86892,10.68278 q 0.22963,0.34943 0.39936,0.65893 0.16972,0.3095 0.26956,0.57907 l 0,-11.92078 1.90693,0 0,14.70629 -2.16651,0 -7.01868,-10.83254 q -0.15975,-0.24959 -0.29952,-0.51916 -0.12979,-0.26957 -0.2496,-0.56908 l 0,11.92078 -1.89694,0 z" />
        <path
           id="path4477"
           style="font-style:normal;font-variant:normal;font-weight:normal;font-stretch:normal;font-family:'Swis721 BT';-inkscape-font-specification:'Swis721 BT';letter-spacing:12.17771053px;fill:#01472f;fill-opacity:1;stroke:#01472f;stroke-width:0.5;stroke-miterlimit:4;stroke-dasharray:none;stroke-opacity:1"
           d="m 475.40773,944.78888 0,-14.70629 10.4831,0 0,1.82705 -8.50628,0 0,4.39292 7.85733,0 0,1.71723 -7.85733,0 0,4.93205 8.67601,0 0,1.83704 -10.65283,0 z" />
        <path
           id="path4479"
           style="font-style:normal;font-variant:normal;font-weight:normal;font-stretch:normal;font-family:'Swis721 BT';-inkscape-font-specification:'Swis721 BT';letter-spacing:12.17771053px;fill:#01472f;fill-opacity:1;stroke:#01472f;stroke-width:0.5;stroke-miterlimit:4;stroke-dasharray:none;stroke-opacity:1"
           d="m 499.96548,939.94669 1.92689,0 q 0.0299,1.59742 1.05829,2.54589 1.03833,0.94847 2.76555,0.94847 1.70724,0 2.68567,-0.71884 0.9884,-0.71884 0.9884,-1.95684 0,-1.68728 -3.69404,-2.56587 -0.21965,-0.0499 -0.33946,-0.0799 -2.99517,-0.70886 -3.96361,-1.57746 -0.95845,-0.87858 -0.95845,-2.48599 0,-1.96683 1.43768,-3.15491 1.43768,-1.19807 3.82384,-1.19807 2.43607,0 3.83382,1.25797 1.39774,1.24799 1.41771,3.43446 l -1.90692,0.01 q -0.0998,-1.47762 -1.00838,-2.26635 -0.89855,-0.78873 -2.46602,-0.78873 -1.46764,0 -2.34622,0.64896 -0.87858,0.63897 -0.87858,1.70725 0,1.70724 3.63414,2.54589 0.53913,0.12979 0.82866,0.19968 l 0.20966,0.0499 q 2.37617,0.56908 3.15492,1.22802 0.58905,0.49919 0.89855,1.21804 0.3095,0.70885 0.3095,1.58744 0,2.12657 -1.52754,3.38454 -1.51755,1.25797 -4.11337,1.25797 -2.67568,0 -4.17327,-1.34783 -1.4876,-1.35781 -1.59742,-3.88373 z" />
      </g>
    </g>
  </g>
</svg>
